<svg 
 xmlns="http://www.w3.org/2000/svg"
 xmlns:xlink="http://www.w3.org/1999/xlink"
 width="38px" height="38px">
<path fill-rule="evenodd"  fill="rgb(255, 255, 255)"
 d="M37.320,15.234 C37.076,14.041 36.712,12.869 36.238,11.746 C35.771,10.644 35.197,9.584 34.525,8.592 C33.865,7.609 33.101,6.689 32.263,5.852 C31.421,5.010 30.501,4.246 29.519,3.586 C28.529,2.914 27.466,2.336 26.365,1.869 C25.247,1.398 24.070,1.035 22.878,0.793 C21.656,0.541 20.398,0.412 19.142,0.412 C17.884,0.412 16.628,0.541 15.404,0.793 C14.214,1.035 13.038,1.398 11.919,1.869 C10.818,2.336 9.757,2.914 8.767,3.586 C7.785,4.246 6.859,5.010 6.017,5.852 C5.183,6.689 4.419,7.609 3.755,8.592 C3.087,9.584 2.509,10.644 2.046,11.746 C1.572,12.869 1.204,14.041 0.962,15.234 C0.714,16.455 0.585,17.714 0.585,18.969 C0.585,20.226 0.714,21.486 0.962,22.703 C1.204,23.896 1.572,25.072 2.046,26.191 C2.509,27.293 3.087,28.353 3.755,29.349 C4.419,30.326 5.183,31.252 6.017,32.089 C6.859,32.931 7.785,33.691 8.767,34.351 C9.757,35.023 10.818,35.601 11.919,36.068 C13.038,36.539 14.214,36.902 15.404,37.144 C16.628,37.400 17.884,37.525 19.142,37.525 C20.398,37.525 21.656,37.400 22.878,37.144 C24.070,36.902 25.247,36.539 26.365,36.068 C27.466,35.601 28.529,35.023 29.519,34.351 C30.501,33.691 31.421,32.931 32.263,32.089 C33.101,31.252 33.865,30.326 34.525,29.349 C35.197,28.353 35.771,27.293 36.238,26.191 C36.712,25.072 37.076,23.896 37.320,22.703 C37.572,21.486 37.695,20.226 37.695,18.969 C37.695,17.714 37.572,16.455 37.320,15.234 ZM34.984,18.808 C34.751,18.762 29.390,17.607 23.947,18.291 C23.835,18.019 23.720,17.746 23.605,17.474 C23.273,16.699 22.919,15.932 22.552,15.176 C28.808,12.621 31.347,8.947 31.380,8.902 C33.601,11.601 34.947,15.053 34.984,18.808 ZM29.609,7.078 C29.568,7.140 27.310,10.574 21.329,12.814 C18.623,7.838 15.646,3.882 15.408,3.570 C16.609,3.281 17.855,3.123 19.142,3.123 C23.154,3.123 26.816,4.617 29.609,7.078 ZM15.345,3.582 L15.345,3.586 C15.345,3.586 15.324,3.590 15.296,3.594 C15.296,3.594 15.330,3.590 15.345,3.582 ZM12.382,4.638 C12.587,4.920 15.523,8.894 18.263,13.767 C10.656,15.791 4.052,15.709 3.632,15.703 C4.664,10.797 7.962,6.726 12.382,4.638 ZM3.294,18.969 C3.294,18.799 3.302,18.634 3.306,18.469 C3.587,18.473 11.419,18.650 19.576,16.211 C20.031,17.099 20.468,18.002 20.863,18.906 C20.654,18.960 20.447,19.027 20.236,19.092 C11.685,21.853 7.351,29.551 7.351,29.551 L7.355,29.558 C4.833,26.748 3.294,23.039 3.294,18.969 ZM19.142,34.818 C15.308,34.818 11.787,33.451 9.046,31.185 C9.253,31.355 9.402,31.463 9.402,31.463 C9.402,31.463 12.439,24.838 21.837,21.560 C21.874,21.549 21.908,21.535 21.941,21.531 C24.173,27.322 25.093,32.176 25.326,33.562 C23.427,34.367 21.337,34.818 19.142,34.818 ZM27.996,32.109 C27.835,31.156 26.988,26.506 24.912,20.793 C30.027,19.976 34.458,21.379 34.789,21.486 C34.083,25.902 31.558,29.713 27.996,32.109 Z"/>
</svg>