<svg 
 xmlns="http://www.w3.org/2000/svg"
 xmlns:xlink="http://www.w3.org/1999/xlink"
 width="38px" height="31px">
<path fill-rule="evenodd"  fill="rgb(255, 255, 255)"
 d="M37.845,3.572 C36.488,4.173 35.027,4.584 33.490,4.765 C35.054,3.828 36.259,2.341 36.826,0.566 C35.361,1.437 33.734,2.070 32.009,2.412 C30.626,0.935 28.654,0.013 26.470,0.013 C22.281,0.013 18.884,3.410 18.884,7.599 C18.884,8.195 18.954,8.771 19.082,9.330 C12.776,9.015 7.188,5.994 3.445,1.400 C2.792,2.519 2.416,3.828 2.416,5.218 C2.416,7.848 3.757,10.168 5.792,11.533 C4.550,11.492 3.378,11.150 2.355,10.580 C2.355,10.613 2.355,10.646 2.355,10.679 C2.355,14.351 4.971,17.420 8.443,18.117 C7.802,18.289 7.134,18.381 6.441,18.381 C5.954,18.381 5.479,18.336 5.017,18.244 C5.978,21.261 8.781,23.453 12.099,23.515 C9.503,25.550 6.234,26.763 2.681,26.763 C2.066,26.763 1.463,26.726 0.869,26.656 C4.228,28.807 8.215,30.064 12.499,30.064 C26.454,30.064 34.085,18.504 34.085,8.478 C34.085,8.152 34.078,7.822 34.060,7.496 C35.542,6.428 36.830,5.092 37.845,3.572 Z"/>
</svg>